<svg version="1.2" xmlns="http://www.w3.org/2000/svg" viewBox="0 0 1939 1196" width="1939" height="1196">
	<title>HPLLogoColors (1)</title>
	<style>
		.s0 { fill: #662d91 } 
		.s1 { fill: #b91130 } 
		.s2 { fill: #2954e4 } 
		.s3 { fill: #00a8f3 } 
		.s4 { fill: #f7239f } 
		.s5 { fill: #b83dba } 
		.s6 { fill: #0ed145 } 
		.s7 { fill: #ffca18 } 
		.s8 { fill: #9ed852 } 
	</style>
	<path id="Purple Book" class="s0" d="m242.4 678.6c6.6 0.3 19.5 1.4 28.6 2.5 9.1 1.1 22.9 3.1 30.7 4.4 7.9 1.4 22.7 4.5 33 6.9 10.4 2.5 24.2 6.1 30.8 8.1 6.6 2 20.8 6.5 31.5 10.1 10.7 3.7 27.8 9.8 38 13.6 10.2 3.8 23.4 9 29.5 11.5 6.1 2.5 15.7 6.6 21.5 9 5.8 2.5 13 5.6 16 7 3 1.4 9.5 4.3 14.5 6.5 5 2.2 21.4 10.2 36.5 17.8 15.1 7.5 32 16.2 37.5 19.2 5.5 3 14.7 8.1 20.5 11.3 5.8 3.2 20.3 11.7 32.3 18.9 12 7.2 23.7 14.2 26 15.6 2.3 1.4 9.4 5.9 15.7 10 6.3 4.1 17.8 11.7 25.5 16.9 7.7 5.2 20.1 13.7 27.5 18.9 7.4 5.3 21.6 15.6 31.5 23.1 9.9 7.4 24.5 18.6 32.5 24.9 8 6.4 21 17 29 23.6 8 6.7 24.6 21.1 37 32.1 12.4 11 33.8 31.2 47.6 45 13.8 13.7 26.2 26.5 27.5 28.4 2.2 3.2 2.3 3.4 0.4 2.8-1.1-0.3-12.8-8.2-26-17.6-13.2-9.3-26.5-18.7-29.5-20.8-3-2.2-17.4-12-32-21.9-14.6-9.8-35-23.5-45.5-30.3-10.5-6.9-25.8-16.7-34-21.9-8.3-5.2-22-13.8-30.5-19-8.5-5.2-22.5-13.6-31-18.7-8.5-5-21.4-12.6-28.5-16.7-7.1-4.2-19.1-10.9-26.5-15-7.4-4.2-18.9-10.5-25.5-14.1-6.6-3.5-22.6-11.8-35.5-18.4-12.9-6.5-30.7-15.3-39.5-19.5-8.8-4.3-21.4-10.2-28-13.1-6.6-3-17.6-7.8-24.5-10.6-6.9-2.9-16.1-6.8-20.5-8.6-4.4-1.9-11.8-4.8-16.5-6.5-4.7-1.8-16.1-5.9-25.5-9.2-9.4-3.3-24.4-8.2-33.5-11-9.1-2.7-24.6-6.9-34.5-9.3-9.9-2.3-24.6-5.1-32.7-6.1-8.1-1.1-14.9-1.7-15.2-1.4-0.3 0.3 0.8 11.7 2.5 25.5 1.6 13.7 4.1 34.7 5.4 46.5 1.4 11.8 2.5 23.1 2.5 25 0 3-0.2 3.3-1.3 2-0.8-0.8-5.1-7.6-9.7-15-4.5-7.4-9.7-15.8-11.5-18.5-1.7-2.8-10.3-16.5-19-30.5-8.7-14-17.2-27.8-19-30.5-1.8-2.8-9.5-15-17.1-27.3-7.7-12.2-16.8-27.1-20.4-33-3.6-5.9-8-12.8-9.8-15.5-2.5-3.7-3-5-2.1-6.2 1-1.3 3.1-1.4 13.3-0.9zm1485.1-0.5c2.2-0.1 4.5 0.4 5.2 1.1 1 1 0.2 3-3.8 9.8-2.8 4.7-7.7 12.5-10.9 17.5-3.2 5-7.7 12.3-10.1 16.2-2.4 4-13 21.1-23.6 38-10.5 17-20.5 33-22.3 35.8-1.7 2.7-6.2 10-10 16-3.8 6-8.1 13-9.6 15.5-1.5 2.5-4.6 7.4-6.9 11-2.3 3.6-5.7 8.9-7.6 11.8-2.6 4.2-3.6 5-4.1 3.8-0.5-0.9 0.3-11.4 1.7-23.4 1.4-11.9 3.7-31.6 5-43.7 1.3-12.1 2.7-24 3.7-31l-6.8 0.8c-3.8 0.4-11.6 1.5-17.4 2.3-5.8 0.9-17 3.1-25 5.1-8 1.9-22.6 5.9-32.5 8.8-9.9 2.9-25.7 8-35 11.4-9.3 3.3-20.6 7.4-25 9-4.4 1.6-15.2 6-24 9.6-8.8 3.7-18.5 7.7-21.5 9-3 1.2-8.9 3.8-13 5.7-4.1 1.9-14.7 6.8-23.5 10.9-8.8 4-27.2 13.1-41 20-13.7 7-33.3 17.2-43.5 22.6-10.2 5.5-24.3 13.3-31.5 17.3-7.2 4-21.8 12.5-32.5 18.8-10.7 6.3-22 12.9-25 14.7-3 1.7-8 4.7-11 6.6-3 2-9.8 6.2-15 9.4-5.2 3.2-11.7 7.2-14.5 9-2.7 1.7-12 7.6-20.5 13-8.5 5.4-21.3 13.7-28.5 18.3-7.2 4.7-14.8 9.7-17 11.2-2.2 1.5-11.9 8-21.5 14.5-9.6 6.5-23.3 15.9-30.5 20.9-7.2 4.9-22.8 16-34.8 24.6-12 8.5-23.7 16.6-30.2 20.3l4.5-5.4c2.4-3 15-16 28-28.9 12.9-12.9 34.1-33 47.1-44.5 13-11.5 30.9-27.1 40-34.6 9-7.5 18.9-15.6 21.9-18 3-2.4 6.7-5.3 8.1-6.4 1.5-1.1 9.4-7.2 17.5-13.5 8.2-6.3 18.3-13.9 22.4-16.9 4.1-3 12.7-9.1 19-13.6 6.3-4.5 17.6-12.4 25-17.5 7.4-5.1 19.1-12.9 26-17.3 6.9-4.4 17.2-11 23-14.5 5.8-3.6 17.3-10.6 25.5-15.5 8.3-4.9 22.9-13.3 32.5-18.6 9.6-5.4 21.8-12 27-14.8 5.2-2.8 19.2-9.9 31-15.8 11.8-6 26-12.8 31.5-15.2 5.5-2.5 16.1-7.2 23.5-10.4 7.4-3.3 19.3-8.4 26.5-11.4 7.2-2.9 17-6.9 22-8.9 5-1.9 14.6-5.5 21.5-8.1 6.9-2.6 19-6.8 27-9.5 8-2.7 21.3-6.9 29.5-9.5 8.3-2.6 19.7-5.8 25.5-7.1 5.8-1.3 15.5-3.6 21.5-4.9 6-1.4 16.2-3.4 22.5-4.5 6.3-1 17.1-2.7 24-3.6 6.9-0.9 17.9-1.9 24.5-2.3 6.6-0.5 13.8-0.9 16-1zm-1499.5 215.4c23.4 0.2 53.8 1.1 67.5 1.9 13.8 0.9 32.2 2.3 41 3.2 8.8 0.8 27.5 2.8 41.5 4.5 14 1.6 34.1 4.3 44.5 5.9 10.5 1.6 27.8 4.5 38.5 6.4 10.7 1.9 26.5 4.8 35 6.5 8.5 1.6 23.6 4.8 33.5 7.1 9.9 2.2 26.3 6.1 36.5 8.6 10.2 2.5 26.6 6.8 36.5 9.5 9.9 2.8 23.4 6.6 30 8.6 6.6 1.9 20.5 6.2 31 9.4 10.5 3.3 28.9 9.4 41 13.6 12.1 4.1 30.8 10.8 41.5 14.9 10.7 4 23.5 8.9 28.5 10.8 5 1.9 19.1 7.7 31.5 12.9 12.4 5.2 29 12.4 37 16 8 3.5 18.1 8.1 22.5 10.2 4.4 2 19.7 9.5 34 16.7 14.3 7.2 26.5 13.4 27 13.8 0.5 0.4 4.5 2.6 8.8 4.8 4.2 2.3 8.7 5.1 12.2 8.2l-2.5-0.6c-1.4-0.3-14.4-4.4-29-8.9-14.6-4.6-28.1-8.8-30-9.3-1.9-0.5-13.4-4-25.5-7.7-12.1-3.7-25.8-7.7-30.5-9-4.7-1.3-17.3-4.8-28-8-10.7-3.1-32.1-8.9-47.5-13-15.4-4-33.4-8.7-40-10.4-6.6-1.7-21.2-5.3-32.5-8-11.3-2.8-24.8-6-30-7.1-5.2-1.1-13.3-2.9-18-4-4.7-1.1-19.1-4.2-32-6.9-12.9-2.8-37-7.5-53.5-10.5-16.5-3-39.7-7.1-51.5-9-11.8-1.9-33.9-5.1-49-7-15.1-1.9-38.7-4.7-52.5-6-13.7-1.4-38.2-3.3-54.2-4.1-16.1-0.8-40.5-1.5-54.3-1.5-13.7 0-32.8 0.5-42.2 1-9.5 0.6-23.4 1.7-30.8 2.5-7.4 0.8-19.3 2.6-26.5 4-7.1 1.4-13.4 2.9-13.8 3.3-0.5 0.4-0.4 1.6 0.2 2.7 0.6 1.1 4.1 8.5 7.7 16.5 3.6 8 10.1 22.2 14.4 31.5 4.3 9.3 11 24 15 32.5 3.9 8.5 7.6 16.7 8.1 18.2 0.9 2.7 0.8 2.7-1.3 1.6-1.3-0.6-7.7-5.7-14.3-11.2-6.6-5.6-13.3-11.3-15-12.7-1.6-1.5-25-21.2-52-43.9-26.9-22.6-58.4-49.1-69.9-58.8-11.4-9.7-22.5-19-24.5-20.5-2-1.5-3.7-3.2-3.8-3.7-0.2-0.6 1.3-1.7 3.2-2.5 1.9-0.8 10.4-3.3 18.8-5.5 8.3-2.1 24-5.5 34.7-7.4 10.7-2 26.5-4.4 35-5.5 8.5-1.1 22.9-2.4 32-3 9.1-0.7 18.1-1.3 20-1.5 1.9-0.2 22.6-0.3 46-0.1zm1522 0c26.7 0.2 46.4 0.9 57.8 1.9 9.4 0.9 23.4 2.5 31 3.5 7.5 1.1 21.4 3.4 30.7 5.1 9.3 1.7 23.9 4.9 32.3 7 8.3 2.2 16.8 4.7 18.7 5.5 1.9 0.8 3.5 1.8 3.5 2.2 0 0.5-3 3.3-6.7 6.4-3.8 3.1-11.3 9.4-16.8 14-5.5 4.7-17.7 14.9-27 22.8-9.3 7.9-19.2 16.2-22 18.6-2.7 2.3-13.8 11.6-24.6 20.6-10.7 9-27.8 23.4-37.8 31.9-10.1 8.5-20 16.8-22.1 18.5-2 1.7-7.8 6.5-12.9 10.7-5 4.3-9.6 7.8-10.1 7.8-0.5 0-1-0.5-1-1 0-0.5 1.4-4 3.1-7.8 1.7-3.7 5.6-12.1 8.6-18.7 3-6.6 9.3-20.3 14-30.5 4.7-10.2 11.2-24.4 14.5-31.5 3.3-7.2 5.6-13.3 5.1-13.7-0.4-0.5-5.1-1.7-10.3-2.7-5.2-1.1-14.5-2.7-20.5-3.5-6-0.9-16.8-2-24-2.6-7.2-0.6-26.7-1.4-43.5-1.7-18.2-0.3-41.2-0.1-57 0.6-14.6 0.7-34.6 1.9-44.5 2.7-9.9 0.8-25.9 2.3-35.5 3.3-9.6 1.1-28.5 3.4-42 5.1-13.5 1.7-36.4 5.1-51 7.5-14.6 2.4-31.5 5.4-37.5 6.5-6 1.1-17.1 3.1-24.5 4.5-7.4 1.3-26.1 5.1-41.5 8.4-15.4 3.3-34.3 7.4-42 9.1-7.7 1.7-32 7.6-54 13-22 5.5-45 11.3-51 12.9-6 1.7-21.8 6-35 9.7-13.2 3.6-27.6 7.6-32 8.9-4.4 1.3-22.6 6.7-40.5 12-17.9 5.3-37.9 11.4-44.5 13.5-6.6 2.1-17.8 5.6-25 7.8-7.2 2.2-14.1 4.3-18 5.1l2.5-1.9c1.4-1.1 8.1-5.1 15-8.8 6.9-3.8 20.2-10.8 29.5-15.5 9.3-4.7 22.4-11.1 29-14.2 6.6-3.1 16-7.5 21-9.7 5-2.2 13.3-5.9 18.5-8.3 5.2-2.3 15.1-6.6 22-9.5 6.9-2.8 16.5-6.9 21.5-8.9 5-2.1 12.6-5.2 17-6.9 4.4-1.7 14.8-5.6 23-8.7 8.3-3.2 19.3-7.2 24.5-9 5.2-1.8 17.4-6 27-9.3 9.6-3.3 25.4-8.4 35-11.5 9.6-3 21.3-6.6 26-8 4.7-1.4 17.7-5.1 29-8.2 11.3-3.1 26.6-7.2 34-9.1 7.4-1.9 24.3-5.9 37.5-9 13.2-3 31-6.8 39.5-8.5 8.5-1.6 24-4.5 34.5-6.4 10.5-1.8 26.2-4.5 35-5.9 8.8-1.4 21.8-3.3 29-4.1 7.2-0.9 20.2-2.4 29-3.5 8.8-1.1 26.1-2.8 38.5-3.9 12.4-1.1 32.4-2.5 44.5-3.1 12.1-0.6 24.5-1.2 27.5-1.4 3-0.2 23.7-0.2 46-0.1zm-1718 206.5c6.3 0 50.9 0.7 99 1.5 48.1 0.8 132.7 2.1 188 3 55.3 0.8 156.5 2.4 225 3.5 68.5 1.1 165 2.7 214.5 3.5 50.2 0.9 143.8 1.5 211.5 1.5 67.3 0 161-0.7 210-1.5 48.7-0.8 145.9-2.4 216-3.5 70.1-1.1 169.8-2.7 221.5-3.5 51.7-0.8 140.3-2.2 300-4.9l4.5 2.6c2.5 1.4 5.9 4.5 7.6 6.9 1.7 2.4 4.4 7.5 6 11.4 2.5 6.1 2.9 8.2 2.9 16.5 0 8.4-0.4 10.3-3.2 17-1.8 4.1-5.1 9.7-7.5 12.4-2.4 2.7-5.2 5.3-6.3 5.9-1.3 0.7-11.9 1-30.5 0.9-15.7-0.2-80-1.1-143-2.2-63-1-136.3-2.2-163-2.5-26.7-0.3-113.3-1.7-192.5-3-79.2-1.3-167.4-2.7-248-3.7l-2.7 5.8c-1.5 3.4-4.9 8.1-8 11.2q-5.3 5.3-14.3 9.8c-5 2.5-12.2 5.1-16.2 5.9-6.3 1.3-25.4 1.5-259.8 1l-8-2.7c-4.4-1.5-10.2-4.1-13-5.7-2.7-1.6-7.4-5-10.3-7.7-3.3-3-6.6-7.3-8.4-10.9-1.6-3.3-3.3-6.2-3.8-6.5-0.4-0.3-23.2-0.2-50.7 0.2-27.4 0.5-117.5 1.9-200.3 3.3-82.8 1.3-171.4 2.7-197 3-25.6 0.4-97.8 1.5-160.5 2.5-62.7 1.1-127 2-172 2.4l-3.9-3c-2.2-1.6-5.6-5.4-7.5-8.4-2-3-4.7-8.9-6-13-2.1-6.4-2.3-8.7-1.8-15.5 0.5-6.2 1.4-9.6 4-15 1.8-3.8 4.9-8.8 6.8-10.9 1.9-2.2 4.8-4.8 6.4-5.8 2.4-1.5 5.1-1.8 14.5-1.8z"/>
	<g id="Dots">
		<path id="Red" class="s1" d="m1056.1 16.2c3.1 1.1 6.9 3.3 9.4 5.5 2.3 2.1 4.7 4.8 5.3 6 0.6 1.2 1.6 5.2 2.2 8.7 0.9 5.5 0.8 7.4-1 12.2-1.1 3.1-3.4 7.2-5 9-1.7 1.8-4.6 4.2-6.5 5.2-1.9 1-5.6 2.2-8.3 2.7-3.1 0.5-6.9 0.2-10.7-0.8-4.1-1.1-7-2.6-10-5.1-2.3-2-5-5.1-6.1-7.1-1-1.9-2.2-5.6-2.6-8.3-0.5-3.1-0.3-7 0.7-10.7 1.2-4.4 2.5-6.8 5.6-10.3 2.2-2.5 5.9-5.4 8.2-6.4 2.3-1 6.2-2 8.8-2.1 2.7-0.1 7 0.5 10 1.5zm-372.4 107.2c6.2 1.9 7.9 2.8 11.3 6.4 2.4 2.6 4.5 6.3 5.6 9.7 1.3 4.5 1.3 6.8 0.1 12.4-1.2 5.7-2.1 7.8-5.2 11.6-2.1 2.7-5.6 5.5-8.4 6.8-2.6 1.3-7.3 2.3-10.4 2.4-3.8 0-7.3-0.6-10.4-1.9-2.6-1-6.6-3.8-9-6.1-3.2-3.2-4.7-5.7-5.8-10.1-0.8-3.2-1.2-8.1-0.8-10.8q0.6-5 3.6-9.9c1.6-2.7 4.8-6.2 7.1-7.9 2.3-1.6 6.7-3.4 9.7-3.9 4.5-0.8 6.6-0.6 12.6 1.3zm432.8 181.3c3.1 1.1 6.9 3.3 9.4 5.5 2.3 2.1 4.7 4.7 5.3 6 0.6 1.2 1.6 5.1 2.2 8.7 0.9 5.5 0.8 7.4-1 12.2-1.1 3.1-3.4 7.1-5 9-1.7 1.8-4.6 4.1-6.5 5.2-1.9 1-5.6 2.2-8.3 2.6-3.2 0.5-6.9 0.3-10.9-0.8-4.6-1.2-7.1-2.5-10.2-5.3-2.3-2-4.9-4.9-5.7-6.4-0.8-1.5-1.9-5.2-2.4-8.2-0.7-3.8-0.6-7.2 0.5-11.2 1.2-4.5 2.5-6.9 5.6-10.4 2.2-2.4 5.9-5.3 8.2-6.3 2.3-1.1 6.2-2 8.8-2.1 2.7-0.2 7 0.5 10 1.5zm251.1 67.2c5.8 1.8 9.1 3.4 11.5 5.6 1.8 1.6 4.4 5.1 5.6 7.6 1.3 2.6 2.5 6.2 2.8 8.1 0.2 1.9-0.4 6.7-1.5 10.5-1.6 6.2-2.4 7.5-6.4 11.5-3.1 3-6.3 4.9-10.1 6-4.3 1.3-6.9 1.4-12 0.4-3.5-0.8-7.8-2.3-9.5-3.3-1.7-1.1-4.6-3.8-6.5-6-2-2.5-3.7-6.2-4.4-9.5-0.7-3.6-0.7-8 0.2-12.7 0.9-5.2 1.9-8 3.5-10.1 1.3-1.7 4.3-4.3 6.7-5.9 2.3-1.6 6-3.3 8.1-3.8 3.2-0.7 5.5-0.4 12 1.6zm-549.8-30.6c4.3 1.1 7.5 2.7 10.1 4.8 2.1 1.8 4.8 4.7 5.9 6.5 1.1 1.8 2.5 5.3 3.1 7.8 0.7 3.3 0.5 6.1-0.9 11.6-1.7 6.4-2.5 7.8-6.4 11.8-3.3 3.4-5.9 4.9-10.4 6.2-3.4 1-8.1 1.5-10.6 1.2-2.6-0.3-6.7-1.7-9.5-3.2-2.7-1.5-6.3-4.5-8-6.7-1.6-2.2-3.6-6.7-4.3-10-1.1-4.8-1-7.3 0.3-12.1 1.4-4.9 2.5-7 6.4-11.2 4-4.3 5.7-5.3 11.4-6.7 5.6-1.4 7.6-1.4 12.9 0zm-169.8 244.3c4.7 1.3 7.6 2.7 10.1 4.9 2 1.8 4.5 4.7 5.6 6.5 1.2 1.8 2.5 5.2 3 7.6 0.5 2.5 0.6 6.7 0.1 9.4-0.4 2.7-1.7 6.6-2.9 8.5-1.1 2-3.8 5.2-6 7.2-2.6 2.5-5.8 4.1-9.9 5.1-5 1.1-7.1 1.1-12.8-0.4-5.4-1.5-7.6-2.6-11.1-5.8-2.4-2.2-5-5.6-5.9-7.7-0.8-2.1-1.7-5.6-2-7.8-0.3-2.2 0.1-6.5 0.9-9.6 1-3.5 2.7-6.9 4.7-9.3 1.7-2.1 4.3-4.8 5.7-5.9 1.3-1.2 5.1-2.6 8.2-3.3 4.5-0.9 7.3-0.7 12.3 0.6zm351.6 103.2c2.6 1 5.8 2.7 7.2 3.8 1.5 1.1 3.7 3.7 5.1 5.7 1.4 2 3 6 3.6 8.9 0.8 4 0.6 6.8-0.8 12.2-1.7 6.2-2.4 7.5-6.4 11.4-3.1 3-6.4 5-10.1 6.1-4.7 1.4-6.8 1.4-13 0-6.2-1.3-8-2.1-11.2-4.9-2.1-1.8-4.5-4.5-5.5-6-0.9-1.4-2.2-5.1-2.9-8.1-1-4.5-0.8-6.9 0.6-12.3 1.4-4.9 2.7-7.7 4.9-10.1 1.7-1.8 4.6-4.2 6.5-5.3 1.9-1.1 5-2.4 6.8-2.8 1.8-0.4 4.9-0.7 6.9-0.6 2 0.1 5.7 1 8.3 2zm229.6 64.4c3.1 1 7 3.3 9.4 5.5 2.3 2 4.7 4.7 5.4 5.9 0.6 1.3 1.6 5.2 2.2 8.8 0.9 5.4 0.7 7.3-1 12.1-1.1 3.1-3.4 7.2-5.1 9-1.6 1.9-4.5 4.2-6.4 5.2-1.9 1-5.6 2.2-8.3 2.7-3.2 0.5-7 0.2-10.7-0.8-4.1-1-7-2.5-10-5.1-2.3-1.9-5.1-5.1-6.1-7-1-1.9-2.2-5.7-2.6-8.4-0.6-3.1-0.3-6.9 0.7-10.7 1.1-4.4 2.4-6.8 5.6-10.3 2.2-2.5 5.9-5.3 8.2-6.4 2.2-1 6.2-1.9 8.8-2.1 2.7-0.1 7 0.6 9.9 1.6z"/>
		<path id="Blue" class="s2" d="m813.9 23.5c5.3 1.4 7.1 2.4 11.1 6.3 3.5 3.4 5.3 6.2 6.6 10.3 1.5 4.6 1.5 6.8 0.3 12.5-1.1 4.9-2.3 7.9-4.4 10.7-1.6 2.1-4.4 4.8-6.1 6-1.8 1.2-5.2 2.7-7.7 3.4-2.5 0.7-6.9 0.9-9.9 0.4-3.1-0.5-7.1-1.8-9.1-2.9-2-1.1-5.2-3.8-7.2-6-2.4-2.7-4.1-5.9-5-9.9-1.3-5-1.2-7.2 0.3-12.8 1.5-5.5 2.5-7.6 5.8-11.1 2.2-2.4 5.7-5.1 7.7-5.9 2.1-0.9 5.5-1.8 7.6-2.1 2.1-0.3 6.6 0.2 10 1.1zm532.5 264.8c3.6 0.9 8.2 2.9 10.4 4.3 2.2 1.4 5.1 4.3 6.6 6.3 1.5 1.9 3.2 6.3 3.9 9.5 1 4.6 0.9 7.3-0.3 11.8-1 3.7-2.7 7.2-4.7 9.6-1.8 2.1-4.7 4.8-6.5 5.9-1.8 1.1-5.8 2.5-8.8 3.1-3.8 0.7-7.1 0.5-11.2-0.6-3.8-1-7.2-2.7-9.6-4.7-2.1-1.7-4.8-4.6-5.9-6.5-1.1-1.8-2.5-5.3-3.1-7.7-0.7-3.4-0.5-6.2 0.9-11.7 1.6-6.1 2.6-8 6.4-12.3 3.3-3.7 5.8-5.4 10-6.9 4.9-1.6 6.4-1.6 11.9-0.1zm-441.5-48.9c5.3 1.4 7.9 2.6 10.6 5 1.9 1.7 4.3 4.3 5.3 5.8 0.9 1.4 2.2 5 2.8 7.9 0.8 4 0.6 6.7-0.8 11.9-1.3 5.2-2.6 7.7-5.3 10.8-2 2.1-4.8 4.6-6.4 5.4-1.5 0.8-4.9 1.9-7.5 2.4-3.4 0.7-6.4 0.4-11.4-0.9-4.9-1.3-7.7-2.7-10.3-4.9-1.9-1.8-4.3-4.4-5.3-5.9-0.9-1.4-2.2-5-2.8-7.8-0.8-4.1-0.6-6.8 0.8-12 1.4-5.2 2.6-7.7 5.3-10.7 2-2.2 4.8-4.7 6.4-5.5 1.5-0.8 4.8-1.9 7.2-2.4 3.2-0.7 6.3-0.5 11.4 0.9zm-271.1-45.8c6.5 1.7 7.7 2.4 11.7 6.5 3.3 3.4 4.9 6.2 6.2 10.7 1.5 5.5 1.5 7-0.2 13.2-1.4 5.4-2.6 7.9-5.4 11-2 2.1-4.8 4.6-6.4 5.4-1.5 0.8-5 1.9-7.7 2.4-4.2 0.9-6.1 0.6-12.6-1.4-6.5-2.1-8.3-3.1-11.1-6.2-1.8-2.1-4.1-5.9-5.1-8.6-1.1-2.8-1.7-7.3-1.4-10.5 0.3-4.2 1.1-6.9 3-10.6 1.5-2.8 4.4-6.3 6.7-8 2.2-1.7 6.5-3.7 9.5-4.4 4.6-1.2 6.7-1.1 12.8 0.5zm720.3 344.2c6.4 1.7 7.9 2.4 11 5.8 2 2.1 4.4 5.7 5.3 7.9 1 2.2 2 5.9 2.3 8.1 0.3 2.3-0.2 6.7-1.3 10.5-1.4 5.3-2.5 7.3-5.6 10.6-2.2 2.3-6.1 5-8.6 6.1-3 1.2-7 1.8-10.8 1.6-3.5-0.2-7.7-1.1-9.8-2-2-1-5-2.9-6.6-4.4-1.6-1.4-3.9-4.2-5-6.1-1.1-1.9-2.4-5.2-2.8-7.3-0.4-2.2-0.6-5.7-0.4-7.9 0.2-2.3 1.5-6.4 3.1-9.5 1.7-3.5 4.2-6.6 6.7-8.5 2.2-1.6 6.5-3.9 9.6-4.9 5.1-1.8 6.2-1.8 12.9 0zm-536.9-128.3c2.4 0.6 5.8 2 7.7 3 1.8 1.1 4.8 3.9 6.6 6.2 2 2.6 3.8 6.7 4.5 10.3 1 4.6 0.9 7.3-0.3 11.8-1 3.7-2.7 7.2-4.7 9.6-1.8 2.1-4.7 4.7-6.5 5.9-1.9 1.1-5.8 2.5-8.8 3.1-3.8 0.6-7.2 0.5-11.3-0.6-4.5-1.1-6.8-2.4-10.3-5.6-2.7-2.4-5.5-6.3-6.7-9.1-1.1-2.7-2-6.9-2-9.3 0-2.4 0.8-6.5 1.7-9.1 0.9-2.6 3.3-6.6 5.3-8.8 2-2.3 5.5-4.9 7.8-6 2.3-1 6-2 8.4-2.2 2.3-0.2 6.2 0.2 8.6 0.8zm249.6 240.8c7.1 1.8 8.2 2.4 12.2 6.6 3.8 3.8 4.8 5.7 6 11.7 1.2 5.6 1.2 8.3 0 12.6-1.2 4.4-2.6 6.7-6.3 10.8-3.9 4.2-5.9 5.5-10.9 6.9-5.5 1.6-6.9 1.5-13.4-0.2-4.9-1.4-8.3-2.9-10.6-4.8-1.9-1.6-4.3-4.2-5.3-5.8-1-1.6-2.4-5.2-3-7.9-0.9-4-0.8-6.5 0.8-12.3 1.6-6.3 2.4-7.8 6.1-11.6 2.4-2.4 6.1-4.9 8.3-5.7 2.2-0.7 5-1.5 6.2-1.8 1.2-0.3 5.7 0.4 9.9 1.5zm-227 66.9c4.2 1.3 7.9 3.2 10 5.1 1.8 1.7 4.2 4.4 5.3 6.2 1.1 1.8 2.5 6.1 3.1 9.5 0.9 5.5 0.8 7-1.3 12.8-1.8 5-3.4 7.5-6.3 10.3-2.3 2.1-6.3 4.2-9.5 5.2-3.1 0.9-7.6 1.4-10.1 1.1-2.5-0.3-6.4-1.3-8.7-2.3-2.3-1-6-3.7-8.1-6-2.8-3-4.5-6-5.6-10.3-1.3-5.3-1.3-7.1 0.3-12.9 1-3.7 2.9-8.5 4.3-10.7 1.6-2.7 4.3-5.1 7.8-7 2.9-1.6 6.9-3 8.7-3.1 1.9 0 6.4 0.9 10.1 2.1z"/>
		<path id="Light Blue" class="s3" d="m1269.8 143.9c2.6 0.9 6.5 3 8.6 4.7 2.1 1.7 4.9 5 6.2 7.3 1.4 2.3 2.9 6.8 3.4 10.1 0.9 5 0.7 6.9-1.2 12.1-1.1 3.4-3.2 7.4-4.6 8.9-1.3 1.5-4.2 3.9-6.5 5.4-2.2 1.5-6.5 3.1-9.5 3.6-3.6 0.7-7.2 0.5-10.7-0.4-3-0.8-6.9-2.3-8.7-3.4-1.9-1.1-4.8-3.8-6.6-6.1-1.7-2.4-3.8-6.8-4.6-9.8-0.8-3.1-1.1-7.8-0.7-10.6 0.4-3.4 1.6-6.6 3.9-10.3 2.5-4.2 4.6-6.1 9.5-9 4.3-2.4 7.9-3.7 11.5-3.9 3.1-0.1 7.3 0.5 10 1.4zm-680.6 206.3c2.1 0.9 5 2.5 6.5 3.7 1.6 1.2 4.2 4.2 5.9 6.8 1.6 2.6 3.4 6.7 4 9.1 0.7 3.4 0.5 6.1-1.1 12.1-1.6 6.1-2.7 8.5-5.2 11.1-1.7 1.8-4.9 4.3-7.1 5.5-2.3 1.2-6.5 2.6-9.5 3.1-3.4 0.5-7.3 0.2-10.7-0.7-3.4-0.9-6.9-2.7-9.9-5.1-2.9-2.3-5.6-5.7-7.2-9-1.5-3.1-2.7-7.6-2.7-10.6-0.1-2.9 0.2-6.5 0.6-8.1 0.5-1.6 2-4.9 3.5-7.3 1.5-2.5 4.9-5.9 7.5-7.8 2.7-1.7 6.8-3.6 9.2-4.1 2.4-0.5 6.2-0.7 8.4-0.5 2.3 0.2 5.8 1 7.8 1.8zm556.5 170c2.9 0.8 6.8 2.3 8.7 3.4 1.8 1.1 4.7 3.8 6.5 6.1 1.7 2.4 3.8 6.8 4.6 9.8 0.8 3.1 1.2 7.8 0.8 10.6-0.5 3.3-1.7 6.6-3.6 9.9-1.8 3-4.9 6.2-7.9 8.2-2.7 1.9-7.3 3.9-10.3 4.5-3.9 0.7-7 0.6-11.2-0.5-3.2-0.8-7.4-2.6-9.3-3.9-1.9-1.3-4.9-4.7-6.7-7.5-1.7-2.7-3.5-7-4-9.4-0.5-2.4-0.5-6.8 0-9.8 0.6-3.6 1.9-7 3.8-9.9 1.5-2.4 4.7-5.7 7.1-7.4 2.3-1.6 6.9-3.6 10.2-4.3 4.4-0.9 7.4-0.8 11.3 0.2zm-238.3-13c2.7 0.7 6.4 2.1 8.3 3.2 1.8 1 4.8 3.8 6.6 6.2 1.8 2.3 3.9 6.5 4.8 9.3 1.2 4 1.2 6.6 0.1 12.4-1.3 6.8-1.8 7.8-5.8 12.4-3 3.3-6.2 5.7-9.5 7.1-2.8 1.1-7.4 2.1-10.3 2.2-2.9 0-6.3-0.2-7.6-0.6-1.4-0.3-4.7-2-7.3-3.6-3.7-2.3-5.9-4.6-8.5-9.3-2.9-4.9-3.7-7.6-3.8-12.5-0.1-4.4 0.4-7.7 1.8-10.9 1-2.6 3.6-6.5 5.8-8.7 2.1-2.2 5.7-4.8 8-5.8 2.2-1 6-2 8.3-2.2 2.4-0.2 6.5 0.1 9.1 0.8zm115.5 413.3c3.8 1.2 7.5 3.1 9.5 4.9 1.9 1.7 4.5 4.9 5.8 7.2 1.4 2.3 2.8 6.3 3.3 9 0.6 3.5 0.3 6.8-1 11.6-1.6 5.7-2.6 7.5-6.1 11.2-2.4 2.5-6.1 5.3-8.4 6.3-2.2 1-6.2 1.9-8.8 2.1-2.7 0.2-7.2-0.2-10.1-1-3.5-1-6.8-2.7-9.5-5-2.4-2-5.4-5.8-6.8-8.6-1.4-2.7-2.8-6.8-3.1-9-0.3-2.2 0.1-6.7 0.9-9.9 1-4 2.5-7.1 4.9-10 1.9-2.4 5.2-5.4 7.4-6.7 2.2-1.3 5.4-2.7 7.1-3.1 1.7-0.5 4.4-0.9 5.9-0.9 1.6-0.1 5.6 0.8 9 1.9z"/>
		<path id="Fuchsia" class="s4" d="m972 1.6c4 1.1 7.5 2.7 9.7 4.5 1.8 1.6 4.5 4.5 5.9 6.5 1.4 2 3 6.1 3.6 9.2 0.6 3 0.8 7.4 0.4 9.9-0.4 2.6-1.9 6.5-3.6 9.4-1.8 3-4.8 6.2-7.8 8.2-2.7 1.9-7.4 3.9-10.3 4.5-3.9 0.8-7.1 0.6-11.2-0.5-3.2-0.8-7.4-2.6-9.3-3.9-2-1.3-5-4.7-6.7-7.4-1.8-2.8-3.6-7.1-4.1-9.5-0.5-2.4-0.5-6.8 0-9.8 0.6-3.6 2-7 3.8-9.9 1.6-2.4 5-5.9 7.7-7.7 2.7-1.8 7.1-3.7 10.2-4.2 3.9-0.7 7.1-0.5 11.7 0.7zm347.4 206.5c2.3 1 6.1 3.3 8.4 5.3 2.3 1.9 5.1 5.3 6.2 7.5 1 2.2 2.3 6.2 2.7 8.9 0.5 3.1 0.2 6.9-0.8 10.6-1 3.8-2.6 7.2-4.6 9.7-1.7 2.1-4.6 4.8-6.3 6-1.8 1.3-5.9 2.9-9.2 3.6-4.5 0.9-7.2 0.9-11.7-0.4-3.2-0.8-7.3-2.5-9.2-3.8-2-1.2-5-4.4-6.8-7.2-1.8-2.8-3.8-7.5-4.3-10.4-0.6-3.6-0.4-7.3 0.5-10.8 0.7-2.9 2.3-6.7 3.4-8.4 1.1-1.7 3.5-4.3 5.2-5.9 1.6-1.5 5.2-3.6 7.9-4.5 2.7-1 7.1-1.8 9.7-1.8 2.5 0 6.6 0.7 8.9 1.6zm-263.8 37c2.7 1 6.3 3 8.1 4.6 1.7 1.5 4.1 4.2 5.4 5.9 1.2 1.7 2.8 5.8 3.5 9.1 1 4.7 0.9 7.2-0.5 12.2q-1.7 6.3-4.8 10.1c-1.7 2.1-4.9 4.9-7.1 6.2-2.2 1.4-6.4 2.9-9.4 3.5-3.8 0.7-7.1 0.5-11.2-0.6-4.1-1.1-7.1-2.6-10-5.1-2.4-1.9-5.4-5.4-6.7-7.7-1.3-2.3-2.8-6.4-3.2-9.1-0.5-3.2-0.2-6.9 0.9-11.1 1.3-4.8 2.6-7.3 5.5-10.5 2-2.2 5.7-5.1 8.1-6.3 2.4-1.2 5.6-2.4 7.3-2.6 1.6-0.2 4.3-0.4 6-0.4 1.7 0 5.4 0.8 8.1 1.8zm-453.1 18.9c2.4 0.6 6.2 2.2 8.3 3.7 2.2 1.4 5.3 4.5 7 6.8 1.6 2.4 3.6 7 4.3 10.2 0.9 4.4 0.8 7.4-0.2 11.3-0.8 2.9-2.3 6.8-3.4 8.7-1.1 1.8-3.9 4.8-6.2 6.6-2.4 1.8-6.8 3.9-9.8 4.6-3 0.8-7.7 1.1-10.5 0.7-3.3-0.5-6.6-1.7-10.1-3.7-3.6-2.2-6.1-4.7-8.5-8.4-1.8-2.9-3.7-7.5-4.2-10.2q-0.8-4.9 0.7-10.7c0.8-3.1 2.6-7.3 3.9-9.3 1.3-1.9 4.7-4.9 7.4-6.6 2.8-1.8 6.5-3.5 8.2-4 1.7-0.4 4.4-0.7 5.9-0.7 1.6-0.1 4.8 0.4 7.2 1zm244.5 211.9c2.8 1.1 6.8 3.5 8.9 5.3 2 1.8 4.8 5.7 6.2 8.6 1.6 3.3 2.7 7.6 2.7 11.1 0.1 3.7-0.5 7.3-1.8 10.4-1.1 2.5-3.7 6.5-6 8.7-2.2 2.3-6.2 5-8.8 6.2-2.7 1.1-6.6 2-8.8 2-2.1 0-6.2-0.6-9.2-1.4-3.9-1-6.5-2.5-9.8-5.5-2.5-2.2-5.5-6.2-6.7-8.8-1.2-2.6-2.3-6.8-2.5-9.4-0.2-2.6 0.3-6.9 1-9.6 0.8-2.7 2.7-6.4 4.5-8.6 1.8-2.1 4.2-4.6 5.4-5.4 1.1-0.9 3.7-2.4 5.6-3.2 1.9-0.8 5.9-1.7 8.8-1.9 3.8-0.3 6.8 0.1 10.5 1.5zm275.8 116.1c5 1.6 7.6 3.1 10.4 5.8 2 2 4.6 5.7 5.8 8.2 1.2 2.6 2.3 7 2.4 9.9 0.2 3.5-0.3 7-1.6 10.4-1.1 2.9-3.3 6.7-4.9 8.5-1.6 1.9-4.8 4.5-7.1 5.8-2.3 1.4-6.3 2.8-9 3.3-3.4 0.5-6.9 0.2-11.2-0.9-4.4-1.2-7.4-2.7-10.1-4.9-2-1.8-5.1-5.8-6.7-8.8-2-3.8-2.9-7.3-3-11.5 0-4 0.6-7.5 1.9-10.6 1-2.6 3.7-6.5 5.9-8.8 2.3-2.2 5.9-4.9 8.1-5.8 2.1-1 5.8-2 8.2-2.3 2.7-0.2 6.6 0.4 10.9 1.7zm158.4 93c2.6 0.6 6.8 2.5 9.2 4.1 2.8 1.9 5.6 5 7.6 8.5 2.2 3.9 3.4 7.5 3.6 11.4 0.2 4-0.3 7.4-1.6 11-1 2.8-3.2 6.7-4.9 8.5-1.6 1.8-4.8 4.4-7.1 5.8-2.3 1.3-6.1 2.7-8.5 3.1-2.3 0.4-6.3 0.5-8.8 0.2-3-0.4-6.3-1.6-9.7-3.6-3.7-2.3-6.1-4.6-8.7-9-2.6-4.1-3.9-7.6-4.3-11.7-0.3-4.2 0-7.3 1.4-11 1.1-3.3 3.3-6.9 6-9.7 2.3-2.4 6-5.2 8.3-6.2 2.3-1 6-2 8.4-2.2 2.3-0.3 6.4 0.1 9.1 0.8zm-581.4-36.7c1.7 0.4 5 1.9 7.4 3.4 2.6 1.5 5.9 4.8 7.8 7.6 1.9 2.7 3.8 7.3 4.4 10.3 0.8 4 0.7 7-0.6 11.6-1.1 4.3-2.7 7.6-4.8 10.1-1.7 2.1-5 5-7.3 6.3-2.3 1.3-6.8 2.8-10.1 3.4-5 0.8-6.9 0.6-12.1-1.2-3.5-1.3-7.6-3.5-9.5-5.2-1.8-1.7-4.3-4.9-5.5-7.1-1.3-2.2-2.6-6.2-3.1-8.9-0.5-3.2-0.2-6.9 0.8-10.7 0.9-3.2 2.5-7.2 3.7-8.9 1.1-1.7 3.7-4.4 5.7-5.9 2-1.6 6-3.5 8.9-4.3 2.9-0.8 6.7-1.3 8.3-1.3 1.7 0.1 4.4 0.4 6 0.8zm241 316q6.2 1.7 10.1 4.9c2.1 1.7 4.9 4.9 6.2 7.1 1.3 2.1 2.9 6.4 3.4 9.4 0.7 3.8 0.6 7.1-0.5 11.2-1.1 4-2.7 7.1-5.1 10-2 2.3-6 5.4-8.9 6.9-2.9 1.5-6.9 2.9-9 3.2-2.1 0.2-6.4-0.2-9.5-1.1-4-1-7.2-2.6-10.1-4.9-2.3-1.9-5.2-5-6.3-6.8-1.1-1.8-2.6-5.8-3.3-8.8-0.9-4.4-0.8-6.9 0.6-12.3 1.4-5 2.7-7.7 4.9-10.1 1.6-1.8 4.4-4.3 6.1-5.6 1.8-1.2 5.9-2.8 9.1-3.5 4.8-1 7.3-0.9 12.3 0.4z"/>
		<path id="Magenta" class="s5" d="m1135.5 42.6c3.6 1.2 7.8 3.3 9.3 4.6 1.5 1.4 4 4.3 5.4 6.6 1.5 2.2 3.2 6.5 3.7 9.5 0.6 3.6 0.5 7.2-0.5 10.7-0.8 2.9-2.3 6.9-3.3 8.7-1.1 1.9-3.9 4.8-6.2 6.5-2.3 1.8-6.7 3.9-9.8 4.7-3 0.7-7.8 1.1-10.5 0.7-3.3-0.4-6.7-1.7-9.9-3.6-3-1.8-6.2-4.8-8.3-7.8-1.8-2.8-3.8-7.4-4.4-10.3-0.8-4-0.6-7 0.6-11.7 1.2-4.3 2.7-7.5 4.9-10.1 1.7-2.1 5-4.9 7.3-6.2 2.2-1.4 6.5-2.9 9.5-3.5 4.6-0.8 6.6-0.6 12.2 1.2zm19.2 328c2.3 1 5.3 2.6 6.6 3.6 1.3 1 3.7 3.9 5.4 6.6 1.8 2.7 3.5 7.3 4 10.6 0.8 4.7 0.5 7-1.2 12-1.1 3.4-3.2 7.5-4.5 9.1-1.4 1.7-4.7 4.3-7.2 5.8-2.6 1.6-6.9 3.2-9.6 3.6-2.9 0.4-7.2 0.1-10.7-0.8-4.8-1.2-6.8-2.3-10.8-5.9-3.2-2.8-5.6-6.2-7-9.6-1.2-2.9-2.1-7.8-2.2-10.9 0-3.6 0.6-7.1 1.7-9.4 0.9-2.1 3-5.5 4.7-7.6 1.7-2.1 4.6-4.7 6.5-5.8 1.8-1.2 5.3-2.5 7.7-3 2.4-0.5 6.2-0.8 8.4-0.6 2.2 0.2 5.8 1.2 8.2 2.3zm-542.6 141.6c4.3 1.3 7.9 3.1 10 5 1.9 1.6 4.5 4.8 5.8 7.2 1.3 2.3 2.7 6.4 3.1 9.1 0.4 2.9 0.1 7-0.9 10.6-0.9 3.6-2.7 7.3-4.5 9.6-1.7 2.2-4.7 5-6.8 6.4-2 1.3-6.3 2.9-9.6 3.6-4.5 0.8-7.5 0.6-11.8-0.5-3.7-1-7.2-2.8-9.6-4.7-2.1-1.7-4.9-4.6-6.1-6.3-1.2-1.8-2.8-5.9-3.5-9.2-1-4.7-0.9-7.2 0.5-12.4 0.9-3.6 2.5-7.6 3.5-8.9 0.9-1.3 3.3-3.8 5.3-5.4 2-1.7 5.3-3.6 7.5-4.2 2.1-0.7 5.3-1.4 7.1-1.6 1.8-0.2 6.3 0.5 10 1.7zm552.2 299.9q5.8 1.5 9.6 4.6c2.1 1.7 4.9 4.9 6.3 7.1 1.3 2.2 2.8 6.4 3.4 9.4 0.7 3.9 0.5 7-0.6 11.2-0.9 3.2-2.5 7-3.6 8.6-1.1 1.5-3.8 4.3-6 6.2-2.8 2.3-6 3.8-10.6 4.7-5.4 1.1-7.6 1-12.8-0.5-3.4-1-7.7-2.9-9.4-4.3-1.8-1.4-4.5-4.5-6-6.8-1.5-2.3-3.2-6.6-3.8-9.5-0.8-3.9-0.6-7.1 0.5-11.7 1.3-5.2 2.4-7.2 6.1-11.3 3-3.5 5.9-5.6 9.4-6.8 2.7-1 6.4-1.9 8.3-2.1 1.9-0.2 6 0.4 9.2 1.2z"/>
		<path id="Green" class="s6" d="m892.2 5.7c1.8 0.8 5.2 3 7.5 5 2.4 2 5.5 6 7.1 9.3 1.6 3.3 3 8.1 3.1 11 0.2 3.5-0.4 7.1-1.6 10.5-1.1 2.8-3.3 6.7-4.9 8.5-1.7 1.8-5.5 4.6-8.6 6.2-3.6 1.9-7.4 3-11 3.1-3 0-6.5-0.2-7.9-0.6-1.3-0.3-4.5-1.9-7.1-3.5-3-1.8-5.8-4.6-8-8.1-1.8-2.9-3.7-7.2-4.2-9.7-0.5-2.4-0.6-6.4-0.3-8.8 0.4-2.5 1.8-6.5 3.1-9 1.4-2.5 4.7-6.4 7.4-8.8 2.8-2.3 6.8-4.7 8.9-5.3 2.2-0.6 6-1.2 8.6-1.2 2.6 0 6.1 0.7 7.9 1.4zm86.1 215.6c2.4 1 5.8 3 7.7 4.5 1.8 1.5 4.5 4.4 6 6.5 1.4 2.1 3 6.5 3.5 9.7 0.6 4 0.4 7.6-0.7 11.6-0.9 3.6-2.7 7.2-4.6 9.6-1.6 2.2-5.4 5.2-8.4 6.9-3.4 1.9-7.4 3.1-10.7 3.2-3.3 0.2-7.2-0.5-10.9-1.7-3.1-1.1-7-3.1-8.6-4.5-1.6-1.4-4.2-4.6-5.7-7.2-1.4-2.5-3-6.8-3.5-9.5-0.7-4-0.4-6.2 1.5-12.1 1.9-5.9 3-7.9 6.5-11.1 2.3-2.2 6.2-4.7 8.7-5.7 2.6-0.9 7-1.7 9.8-1.8 3 0 7 0.7 9.4 1.6zm347.9 392.1c4 1.4 7.1 3.2 10.2 6.2 2.8 2.6 5.2 6.1 6.4 9.1 1 2.8 1.9 6.5 2.1 8.4 0.2 1.8-0.3 5.8-1.1 8.7-0.8 2.9-2.3 6.5-3.4 8.1-1.1 1.5-3.8 4.3-6 6.1-2.5 2-6.5 4-10.1 4.9-5.2 1.3-7 1.2-13.3-0.5-5.4-1.5-8.1-2.7-10.6-5-1.8-1.7-4.4-4.9-5.7-7.2-1.3-2.3-2.8-6.1-3.2-8.5-0.5-2.4-0.6-6.6-0.1-9.4 0.4-2.7 1.7-6.5 2.9-8.5 1.1-2 3.9-5.2 6.1-7.2 2.2-1.9 5.8-4.1 7.8-4.9 2.1-0.7 5.7-1.5 8-1.7 2.7-0.3 6.4 0.3 10 1.4zm-560 77.1c2.6 1 6.4 3.2 8.4 5 2 1.8 4.9 5.6 6.3 8.6 1.6 3.3 2.6 7.5 2.7 11.1 0 3.3-0.6 7.4-1.6 9.9-0.9 2.3-3.3 6.1-5.3 8.4-2.1 2.3-5.5 5-7.7 6.1-2.3 1.1-6 2.3-8.4 2.7-2.8 0.4-6.6 0.1-10.6-1-4.6-1.2-7.5-2.6-10.5-5.2-2.4-1.9-5.2-5.5-6.4-7.9-1.3-2.4-2.6-6-3.1-8-0.6-2.5-0.2-5.8 1.3-11.3 1.6-6 2.7-8.5 5.1-11 1.7-1.9 5.5-4.6 8.4-6.2 2.9-1.5 6.9-2.8 8.9-2.9 2-0.1 4.6-0.2 5.7-0.2 1.2 0.1 4.2 0.9 6.8 1.9z"/>
		<path id="Yellow" class="s7" d="m746.1 69.5c2.1 0.9 5.3 3 7.2 4.6 1.8 1.7 4.4 5.4 5.8 8.3 1.4 2.8 2.6 7.5 2.8 10.4 0.2 3.5-0.4 7.1-1.7 10.5-1 2.8-3.2 6.6-4.8 8.5-1.7 1.8-4.9 4.4-7.2 5.8-2.2 1.3-6.1 2.7-8.4 3.1-2.4 0.4-6.4 0.4-8.9 0.2-3-0.4-6.2-1.6-9.6-3.6-3.8-2.3-6.1-4.7-8.8-9-2.6-4.1-3.8-7.7-4.2-11.7-0.4-4.3-0.1-7.3 1.3-11.1 1-2.8 3-6.5 4.5-8.1 1.4-1.6 4-4 5.7-5.4 1.7-1.4 5.3-3.1 7.9-3.9 2.6-0.7 7-1.1 9.7-0.8 2.7 0.3 6.6 1.3 8.7 2.2zm103 213c2.9 0.8 6.6 2.3 8.1 3.4 1.5 1.1 4.3 3.8 6.2 6 2.3 2.7 3.8 6 4.6 10 0.6 3.3 0.9 8.1 0.6 10.5-0.3 3.1-1.6 6.3-3.8 9.9-2.5 4.2-4.6 6.1-9.5 9-4.9 2.8-7.6 3.6-12.5 3.7-4.2 0.1-7.6-0.4-10.4-1.6-2.3-1-6.3-3.6-8.8-5.8-3.1-2.8-5.2-5.7-6.4-9.1-1-2.7-1.9-6.4-2.1-8.3-0.2-1.9 0.3-5.6 0.9-8.2 0.7-2.7 2.1-6.4 3.2-8.2 1-1.9 3.8-4.8 6.1-6.6 2.3-1.7 5.5-3.7 7.1-4.3 1.6-0.6 4.8-1.3 7.2-1.5 2.3-0.2 6.6 0.3 9.5 1.1zm518.2 171.9c4.2 1.1 7.5 2.7 10.1 4.8 2.1 1.7 4.9 4.9 6.2 7.1 1.3 2.1 2.9 5.9 3.4 8.3 0.8 3.5 0.6 6.1-1 12.2-1.6 6-2.8 8.5-5.1 11-1.7 1.9-5.5 4.6-8.4 6.1-3 1.5-7.5 2.8-10 2.9-2.6 0.1-6.8-0.5-9.5-1.2-2.9-0.8-6.6-2.7-9.4-5-2.9-2.3-5.6-5.6-7.2-9-1.5-3-2.7-7.6-2.7-10.6-0.1-2.8 0.2-6.5 0.6-8.1 0.5-1.6 2-4.9 3.5-7.3 1.5-2.5 4.9-5.9 7.5-7.7 2.7-1.9 7.3-3.8 10.3-4.3 3.9-0.7 7.1-0.5 11.7 0.8zm-447.4 259.4c3.8 1.2 7.5 3.1 9.5 5 1.9 1.6 4.6 5.3 6 8.2 1.5 2.9 2.9 6.9 3.2 9 0.3 2.1-0.2 6.6-1.1 10-1 3.8-2.7 7.6-4.3 9.5-1.4 1.8-4.9 4.7-7.8 6.5-3.5 2.2-7.3 3.5-10.9 3.8-3.1 0.3-7.2 0.1-9.2-0.4-2-0.6-5.6-2.2-8.1-3.7-2.4-1.5-5.8-4.6-7.4-7-1.7-2.3-3.6-7-4.3-10.2-1-4.7-0.9-7.3 0.4-12.3 1.4-4.9 2.6-7.2 5.8-10.8 2.2-2.5 6.2-5.5 8.8-6.7 2.6-1.2 6.6-2.4 9-2.6 2.6-0.2 6.6 0.4 10.4 1.7z"/>
		<path id="Light Green" class="s8" d="m1207.7 85.8c3.6 1.2 7.2 3.2 9.8 5.5 2.3 2 5.1 5.7 6.4 8.3 1.2 2.6 2.3 6.9 2.5 9.5 0.1 2.6-0.4 6.9-1.1 9.5-0.8 2.7-2.3 6.1-3.4 7.6-1 1.5-3.8 4.3-6 6.2-2.4 2-6.5 3.9-10.1 4.8-5.2 1.3-7 1.3-13.3-0.4-5.4-1.5-8-2.8-10.5-5.1-1.9-1.7-4.4-4.9-5.7-7.2-1.3-2.2-2.8-6.3-3.3-9-0.6-3.5-0.3-6.7 1-11.6 1.3-4.9 2.7-7.7 4.9-10.1 1.6-1.8 4.9-4.4 7.1-5.7 2.3-1.4 5.6-2.8 7.3-3.2 1.7-0.4 4.3-0.8 5.9-0.8 1.5-0.1 5.4 0.7 8.5 1.7zm144.7 284.8c0.2 0.1-1.3 1.2-3.4 2.5-2 1.3-4.8 3.2-6 4.3-1.2 1.1-2.1 1.5-2 1 0.2-0.5 1.6-1.9 3.2-3.2 1.6-1.3 4-2.8 5.3-3.5 1.4-0.6 2.6-1.1 2.9-1.1zm-192.9 72.8c5 1.6 7.7 3.1 10.4 5.8 2 2 4.5 5.5 5.6 7.7 1.1 2.2 2.3 6 2.7 8.4 0.4 2.4 0.1 6.6-0.7 9.6-0.8 2.9-2.6 7.1-4.1 9.3-1.5 2.1-4.3 5.1-6.3 6.6-2 1.4-6 3.2-9 3.9-3 0.8-7.7 1.1-10.4 0.7-3.4-0.4-6.6-1.5-10-3.5-3-1.8-6.1-4.8-8.2-7.8-1.8-2.7-3.8-7.1-4.3-9.8-0.5-2.7-0.6-6.9-0.1-9.4 0.4-2.6 2-6.8 3.4-9.5 1.5-2.6 4.4-6.3 6.5-8.1 2.7-2.4 5.8-3.7 10.8-4.7 6.3-1.2 7.8-1.1 13.7 0.8zm-174.9 42.4c2.6 1 6.6 3.5 8.9 5.4 2.3 2 5.1 5.5 6.1 7.7 1.1 2.1 2.3 6.1 2.8 8.8 0.5 3.2 0.2 6.9-0.8 10.7-1 3.5-2.8 7.2-4.7 9.6-1.6 2.1-4.9 5-7.3 6.3-2.3 1.4-6.2 2.9-8.6 3.4-2.4 0.4-7.1 0.2-10.7-0.5-5.2-1-7.3-2-11-4.9-2.8-2.3-5.7-5.9-7.4-9.2-1.5-3-2.8-7.3-2.9-9.6-0.1-2.2 0.5-6.7 1.3-9.9 1.2-4.5 2.4-6.8 5.6-10.3 2.3-2.5 6.1-5.4 8.6-6.5 2.5-1.1 7-2.2 10-2.4 3.6-0.2 6.9 0.2 10.1 1.4zm-393.1-57.1c4.5 1.2 7.5 2.7 10.5 5.2 2.4 2 5.3 5.8 6.7 8.8 1.4 2.9 2.7 7.6 2.8 10.5 0.2 3.4-0.4 7-1.6 10.4-1.1 2.9-3.3 6.7-4.9 8.5-1.7 1.9-5.2 4.5-8 5.9-2.7 1.4-6.7 2.8-9 3.2-2.2 0.3-6.6-0.1-9.8-1-4.2-1-7.1-2.5-10.4-5.2-2.9-2.3-5.6-5.8-7.2-9.1-1.5-3-2.7-7.6-2.7-10.5-0.1-2.9 0.2-6.5 0.6-8.1 0.5-1.6 2-4.9 3.5-7.4 1.5-2.4 4.9-5.9 7.5-7.7 2.7-1.8 7.3-3.7 10.3-4.2 3.9-0.7 7.2-0.5 11.7 0.7zm504.8 439.9c4.3 1.4 7.9 3.3 10 5.2 1.9 1.7 4.3 4.9 5.6 7.1 1.2 2.3 2.6 6.3 3 9q0.8 4.8-0.9 11.1c-1.3 5-2.4 7.2-5.7 10.8-2.2 2.5-5.6 5.3-7.6 6.1-1.9 0.9-5.5 2-7.9 2.5-2.4 0.5-6.4 0.6-8.8 0.2-2.7-0.4-6.5-1.8-9.4-3.6-3-1.8-6.2-4.8-8.2-7.7-1.8-2.7-3.8-7.3-4.4-10.3-0.9-4.2-0.8-7 0.5-11.8 1.2-4.3 2.7-7.5 4.8-10.1 1.8-2.1 5.1-4.9 7.3-6.2 2.3-1.3 6.6-2.9 9.6-3.5 4.6-0.8 6.6-0.6 12.1 1.2z"/>
	</g>
</svg>